<mxfile host="Electron" agent="Mozilla/5.0 (Windows NT 10.0; Win64; x64) AppleWebKit/537.36 (KHTML, like Gecko) draw.io/24.7.5 Chrome/126.0.6478.183 Electron/31.3.0 Safari/537.36" version="24.7.5" pages="5">
  <diagram id="4v0DTU4cl1RS47ufpdV_" name="mybatis-basics">
    <mxGraphModel dx="875" dy="518" grid="1" gridSize="10" guides="1" tooltips="1" connect="1" arrows="1" fold="1" page="1" pageScale="1" pageWidth="850" pageHeight="1100" math="0" shadow="0">
      <root>
        <mxCell id="0" />
        <mxCell id="1" parent="0" />
        <mxCell id="6YGV3o2s_Wy05yPgbB_W-1" value="Java Application" style="rounded=1;whiteSpace=wrap;html=1;fillColor=#fff2cc;strokeColor=#d6b656;" vertex="1" parent="1">
          <mxGeometry x="70" y="230" width="120" height="220" as="geometry" />
        </mxCell>
        <mxCell id="6YGV3o2s_Wy05yPgbB_W-2" value="Interface CustomerDao" style="rounded=1;whiteSpace=wrap;html=1;fillColor=#fff2cc;strokeColor=#d6b656;" vertex="1" parent="1">
          <mxGeometry x="450" y="220" width="120" height="60" as="geometry" />
        </mxCell>
        <mxCell id="6YGV3o2s_Wy05yPgbB_W-4" style="edgeStyle=orthogonalEdgeStyle;rounded=0;orthogonalLoop=1;jettySize=auto;html=1;exitX=1;exitY=0.25;exitDx=0;exitDy=0;entryX=0.008;entryY=0.414;entryDx=0;entryDy=0;entryPerimeter=0;fillColor=#dae8fc;strokeColor=#6c8ebf;strokeWidth=3;" edge="1" parent="1" source="6YGV3o2s_Wy05yPgbB_W-1" target="6YGV3o2s_Wy05yPgbB_W-2">
          <mxGeometry relative="1" as="geometry" />
        </mxCell>
        <mxCell id="6YGV3o2s_Wy05yPgbB_W-5" value="MyBatis" style="rounded=1;whiteSpace=wrap;html=1;fillColor=#fff2cc;strokeColor=#d6b656;" vertex="1" parent="1">
          <mxGeometry x="280" y="370" width="120" height="60" as="geometry" />
        </mxCell>
        <mxCell id="6YGV3o2s_Wy05yPgbB_W-8" style="edgeStyle=orthogonalEdgeStyle;rounded=0;orthogonalLoop=1;jettySize=auto;html=1;exitX=1;exitY=0.75;exitDx=0;exitDy=0;entryX=-0.003;entryY=0.414;entryDx=0;entryDy=0;entryPerimeter=0;fillColor=#dae8fc;strokeColor=#6c8ebf;strokeWidth=3;" edge="1" parent="1" source="6YGV3o2s_Wy05yPgbB_W-1" target="6YGV3o2s_Wy05yPgbB_W-5">
          <mxGeometry relative="1" as="geometry" />
        </mxCell>
        <mxCell id="6YGV3o2s_Wy05yPgbB_W-9" value="mybatis-config.xml&lt;div&gt;DB and Mapper info&lt;/div&gt;" style="rounded=1;whiteSpace=wrap;html=1;fillColor=#fff2cc;strokeColor=#d6b656;" vertex="1" parent="1">
          <mxGeometry x="280" y="510" width="120" height="60" as="geometry" />
        </mxCell>
        <mxCell id="6YGV3o2s_Wy05yPgbB_W-11" value="Reads" style="text;html=1;align=center;verticalAlign=middle;whiteSpace=wrap;rounded=0;fillColor=#f5f5f5;fontColor=#333333;strokeColor=#666666;" vertex="1" parent="1">
          <mxGeometry x="350" y="450" width="60" height="30" as="geometry" />
        </mxCell>
        <mxCell id="6YGV3o2s_Wy05yPgbB_W-15" style="edgeStyle=orthogonalEdgeStyle;rounded=0;orthogonalLoop=1;jettySize=auto;html=1;exitX=1;exitY=0.5;exitDx=0;exitDy=0;fillColor=#dae8fc;strokeColor=#6c8ebf;strokeWidth=3;" edge="1" parent="1" source="6YGV3o2s_Wy05yPgbB_W-12" target="6YGV3o2s_Wy05yPgbB_W-14">
          <mxGeometry relative="1" as="geometry" />
        </mxCell>
        <mxCell id="6YGV3o2s_Wy05yPgbB_W-12" value="Dynamic class implementation" style="rounded=1;whiteSpace=wrap;html=1;fillColor=#fff2cc;strokeColor=#d6b656;" vertex="1" parent="1">
          <mxGeometry x="470" y="370" width="120" height="60" as="geometry" />
        </mxCell>
        <mxCell id="6YGV3o2s_Wy05yPgbB_W-13" style="edgeStyle=orthogonalEdgeStyle;rounded=0;orthogonalLoop=1;jettySize=auto;html=1;entryX=0.669;entryY=0.981;entryDx=0;entryDy=0;entryPerimeter=0;dashed=1;fillColor=#dae8fc;strokeColor=#6c8ebf;strokeWidth=3;" edge="1" parent="1" source="6YGV3o2s_Wy05yPgbB_W-12" target="6YGV3o2s_Wy05yPgbB_W-2">
          <mxGeometry relative="1" as="geometry" />
        </mxCell>
        <mxCell id="6YGV3o2s_Wy05yPgbB_W-14" value="JDBC" style="rounded=1;whiteSpace=wrap;html=1;fillColor=#fff2cc;strokeColor=#d6b656;" vertex="1" parent="1">
          <mxGeometry x="670" y="380" width="90" height="40" as="geometry" />
        </mxCell>
        <mxCell id="6YGV3o2s_Wy05yPgbB_W-16" value="RDBMS" style="shape=datastore;whiteSpace=wrap;html=1;fillColor=#fff2cc;strokeColor=#d6b656;" vertex="1" parent="1">
          <mxGeometry x="655" y="230" width="60" height="60" as="geometry" />
        </mxCell>
        <mxCell id="6YGV3o2s_Wy05yPgbB_W-17" style="edgeStyle=orthogonalEdgeStyle;rounded=0;orthogonalLoop=1;jettySize=auto;html=1;entryX=0.756;entryY=1.025;entryDx=0;entryDy=0;entryPerimeter=0;fillColor=#dae8fc;strokeColor=#6c8ebf;strokeWidth=3;" edge="1" parent="1" source="6YGV3o2s_Wy05yPgbB_W-14" target="6YGV3o2s_Wy05yPgbB_W-16">
          <mxGeometry relative="1" as="geometry" />
        </mxCell>
        <mxCell id="6YGV3o2s_Wy05yPgbB_W-19" value="" style="endArrow=classic;startArrow=classic;html=1;rounded=0;exitX=0.5;exitY=0;exitDx=0;exitDy=0;entryX=0.5;entryY=1;entryDx=0;entryDy=0;dashed=1;fillColor=#dae8fc;strokeColor=#6c8ebf;strokeWidth=3;" edge="1" parent="1" source="6YGV3o2s_Wy05yPgbB_W-9" target="6YGV3o2s_Wy05yPgbB_W-5">
          <mxGeometry width="50" height="50" relative="1" as="geometry">
            <mxPoint x="350" y="390" as="sourcePoint" />
            <mxPoint x="400" y="340" as="targetPoint" />
          </mxGeometry>
        </mxCell>
      </root>
    </mxGraphModel>
  </diagram>
  <diagram name="consumer app kafka architecture" id="UmuNCRTXV9C69M1ndm7b">
    <mxGraphModel dx="1034" dy="605" grid="1" gridSize="10" guides="1" tooltips="1" connect="1" arrows="1" fold="1" page="1" pageScale="1" pageWidth="827" pageHeight="1169" math="0" shadow="0">
      <root>
        <mxCell id="0" />
        <mxCell id="1" parent="0" />
        <mxCell id="ifwl0EtauhX26m2-DOp--373" value="&lt;font style=&quot;font-size: 22px;&quot;&gt;Spring Boot Kafka Event-Driven Microservices Architecture with Multiple Consumers&lt;/font&gt;" style="text;html=1;strokeColor=none;fillColor=none;align=center;verticalAlign=middle;whiteSpace=wrap;rounded=0;" parent="1" vertex="1">
          <mxGeometry x="80" y="60" width="640" height="60" as="geometry" />
        </mxCell>
        <mxCell id="ifwl0EtauhX26m2-DOp--395" style="edgeStyle=orthogonalEdgeStyle;rounded=0;orthogonalLoop=1;jettySize=auto;html=1;" parent="1" source="ifwl0EtauhX26m2-DOp--374" target="ifwl0EtauhX26m2-DOp--378" edge="1">
          <mxGeometry relative="1" as="geometry" />
        </mxCell>
        <mxCell id="ifwl0EtauhX26m2-DOp--374" value="Order Service" style="ellipse;whiteSpace=wrap;html=1;fillColor=#a0522d;fontColor=#ffffff;strokeColor=#6D1F00;" parent="1" vertex="1">
          <mxGeometry x="20" y="240" width="120" height="80" as="geometry" />
        </mxCell>
        <mxCell id="ifwl0EtauhX26m2-DOp--377" style="edgeStyle=orthogonalEdgeStyle;rounded=0;orthogonalLoop=1;jettySize=auto;html=1;entryX=0.5;entryY=1;entryDx=0;entryDy=0;" parent="1" source="ifwl0EtauhX26m2-DOp--376" target="ifwl0EtauhX26m2-DOp--374" edge="1">
          <mxGeometry relative="1" as="geometry" />
        </mxCell>
        <mxCell id="ifwl0EtauhX26m2-DOp--376" value="Microservice 1" style="rounded=1;whiteSpace=wrap;html=1;fillColor=#a0522d;fontColor=#ffffff;strokeColor=#6D1F00;" parent="1" vertex="1">
          <mxGeometry x="20" y="370" width="120" height="50" as="geometry" />
        </mxCell>
        <mxCell id="ifwl0EtauhX26m2-DOp--385" style="edgeStyle=orthogonalEdgeStyle;rounded=0;orthogonalLoop=1;jettySize=auto;html=1;entryX=-0.025;entryY=0.613;entryDx=0;entryDy=0;entryPerimeter=0;" parent="1" source="ifwl0EtauhX26m2-DOp--378" target="ifwl0EtauhX26m2-DOp--381" edge="1">
          <mxGeometry relative="1" as="geometry" />
        </mxCell>
        <mxCell id="ifwl0EtauhX26m2-DOp--386" style="edgeStyle=orthogonalEdgeStyle;rounded=0;orthogonalLoop=1;jettySize=auto;html=1;entryX=0;entryY=0.625;entryDx=0;entryDy=0;entryPerimeter=0;" parent="1" source="ifwl0EtauhX26m2-DOp--378" target="ifwl0EtauhX26m2-DOp--384" edge="1">
          <mxGeometry relative="1" as="geometry" />
        </mxCell>
        <mxCell id="ifwl0EtauhX26m2-DOp--378" value="" style="rounded=0;whiteSpace=wrap;html=1;fillColor=#e3c800;fontColor=#000000;strokeColor=#B09500;" parent="1" vertex="1">
          <mxGeometry x="220" y="210" width="200" height="140" as="geometry" />
        </mxCell>
        <mxCell id="ifwl0EtauhX26m2-DOp--379" value="Topic" style="rounded=1;whiteSpace=wrap;html=1;fillColor=#647687;fontColor=#ffffff;strokeColor=#314354;" parent="1" vertex="1">
          <mxGeometry x="250" y="280" width="120" height="60" as="geometry" />
        </mxCell>
        <mxCell id="ifwl0EtauhX26m2-DOp--380" value="&lt;font style=&quot;font-size: 16px;&quot;&gt;Kafka Broker&lt;/font&gt;" style="text;html=1;strokeColor=none;fillColor=none;align=center;verticalAlign=middle;whiteSpace=wrap;rounded=0;" parent="1" vertex="1">
          <mxGeometry x="262" y="230" width="96" height="30" as="geometry" />
        </mxCell>
        <mxCell id="ifwl0EtauhX26m2-DOp--387" style="edgeStyle=orthogonalEdgeStyle;rounded=0;orthogonalLoop=1;jettySize=auto;html=1;exitX=1;exitY=0.5;exitDx=0;exitDy=0;entryX=0;entryY=0.5;entryDx=0;entryDy=0;" parent="1" source="ifwl0EtauhX26m2-DOp--381" target="ifwl0EtauhX26m2-DOp--383" edge="1">
          <mxGeometry relative="1" as="geometry" />
        </mxCell>
        <mxCell id="ifwl0EtauhX26m2-DOp--381" value="Stock Service" style="ellipse;whiteSpace=wrap;html=1;fillColor=#6d8764;fontColor=#ffffff;strokeColor=#3A5431;" parent="1" vertex="1">
          <mxGeometry x="510" y="200" width="120" height="80" as="geometry" />
        </mxCell>
        <mxCell id="ifwl0EtauhX26m2-DOp--382" value="Consumer Group 2" style="ellipse;whiteSpace=wrap;html=1;fillColor=#6d8764;fontColor=#ffffff;strokeColor=#3A5431;" parent="1" vertex="1">
          <mxGeometry x="670" y="310" width="120" height="80" as="geometry" />
        </mxCell>
        <mxCell id="ifwl0EtauhX26m2-DOp--383" value="Consumer Group 1" style="ellipse;whiteSpace=wrap;html=1;fillColor=#6d8764;fontColor=#ffffff;strokeColor=#3A5431;" parent="1" vertex="1">
          <mxGeometry x="670" y="190" width="120" height="80" as="geometry" />
        </mxCell>
        <mxCell id="ifwl0EtauhX26m2-DOp--388" style="edgeStyle=orthogonalEdgeStyle;rounded=0;orthogonalLoop=1;jettySize=auto;html=1;entryX=0;entryY=0.5;entryDx=0;entryDy=0;" parent="1" source="ifwl0EtauhX26m2-DOp--384" target="ifwl0EtauhX26m2-DOp--382" edge="1">
          <mxGeometry relative="1" as="geometry" />
        </mxCell>
        <mxCell id="ifwl0EtauhX26m2-DOp--384" value="Email Service" style="ellipse;whiteSpace=wrap;html=1;fillColor=#6d8764;fontColor=#ffffff;strokeColor=#3A5431;" parent="1" vertex="1">
          <mxGeometry x="520" y="320" width="120" height="80" as="geometry" />
        </mxCell>
        <mxCell id="ifwl0EtauhX26m2-DOp--393" style="edgeStyle=orthogonalEdgeStyle;rounded=0;orthogonalLoop=1;jettySize=auto;html=1;" parent="1" source="ifwl0EtauhX26m2-DOp--389" target="ifwl0EtauhX26m2-DOp--381" edge="1">
          <mxGeometry relative="1" as="geometry" />
        </mxCell>
        <mxCell id="ifwl0EtauhX26m2-DOp--389" value="Microservice 2" style="rounded=1;whiteSpace=wrap;html=1;fillColor=#a0522d;fontColor=#ffffff;strokeColor=#6D1F00;" parent="1" vertex="1">
          <mxGeometry x="510" y="120" width="120" height="50" as="geometry" />
        </mxCell>
        <mxCell id="ifwl0EtauhX26m2-DOp--394" style="edgeStyle=orthogonalEdgeStyle;rounded=0;orthogonalLoop=1;jettySize=auto;html=1;entryX=0.5;entryY=1;entryDx=0;entryDy=0;" parent="1" source="ifwl0EtauhX26m2-DOp--390" target="ifwl0EtauhX26m2-DOp--384" edge="1">
          <mxGeometry relative="1" as="geometry" />
        </mxCell>
        <mxCell id="ifwl0EtauhX26m2-DOp--390" value="Microservice 3" style="rounded=1;whiteSpace=wrap;html=1;fillColor=#a0522d;fontColor=#ffffff;strokeColor=#6D1F00;" parent="1" vertex="1">
          <mxGeometry x="520" y="440" width="120" height="50" as="geometry" />
        </mxCell>
        <mxCell id="ifwl0EtauhX26m2-DOp--398" value="&lt;font style=&quot;font-size: 13px;&quot;&gt;OrderEvent&lt;/font&gt;" style="text;html=1;strokeColor=none;fillColor=none;align=center;verticalAlign=middle;whiteSpace=wrap;rounded=0;" parent="1" vertex="1">
          <mxGeometry x="130" y="250" width="96" height="30" as="geometry" />
        </mxCell>
        <mxCell id="ifwl0EtauhX26m2-DOp--400" value="&lt;font style=&quot;font-size: 13px;&quot;&gt;OrderEvent&lt;/font&gt;" style="text;html=1;strokeColor=none;fillColor=none;align=center;verticalAlign=middle;whiteSpace=wrap;rounded=0;" parent="1" vertex="1">
          <mxGeometry x="414" y="190" width="96" height="30" as="geometry" />
        </mxCell>
        <mxCell id="ifwl0EtauhX26m2-DOp--401" value="&lt;font style=&quot;font-size: 13px;&quot;&gt;OrderEvent&lt;/font&gt;" style="text;html=1;strokeColor=none;fillColor=none;align=center;verticalAlign=middle;whiteSpace=wrap;rounded=0;" parent="1" vertex="1">
          <mxGeometry x="414" y="380" width="96" height="30" as="geometry" />
        </mxCell>
      </root>
    </mxGraphModel>
  </diagram>
  <diagram name="consumer rabbitmq" id="Z3ew14B0-u1KSxLlUjOi">
    <mxGraphModel dx="1034" dy="605" grid="1" gridSize="10" guides="1" tooltips="1" connect="1" arrows="1" fold="1" page="1" pageScale="1" pageWidth="827" pageHeight="1169" math="0" shadow="0">
      <root>
        <mxCell id="gN87uwsulRMDNThf3h8A-0" />
        <mxCell id="gN87uwsulRMDNThf3h8A-1" parent="gN87uwsulRMDNThf3h8A-0" />
        <mxCell id="gN87uwsulRMDNThf3h8A-2" value="&lt;font style=&quot;font-size: 22px;&quot;&gt;Spring Boot RabbitMQ Event-Driven Microservices Architecture with Multiple Queues&lt;/font&gt;" style="text;html=1;strokeColor=none;fillColor=none;align=center;verticalAlign=middle;whiteSpace=wrap;rounded=0;" parent="gN87uwsulRMDNThf3h8A-1" vertex="1">
          <mxGeometry x="80" y="60" width="640" height="60" as="geometry" />
        </mxCell>
        <mxCell id="gN87uwsulRMDNThf3h8A-5" style="edgeStyle=orthogonalEdgeStyle;rounded=0;orthogonalLoop=1;jettySize=auto;html=1;entryX=0.5;entryY=1;entryDx=0;entryDy=0;" parent="gN87uwsulRMDNThf3h8A-1" source="gN87uwsulRMDNThf3h8A-6" edge="1">
          <mxGeometry relative="1" as="geometry">
            <mxPoint x="80" y="320" as="targetPoint" />
          </mxGeometry>
        </mxCell>
        <mxCell id="gN87uwsulRMDNThf3h8A-6" value="Microservice 1" style="rounded=1;whiteSpace=wrap;html=1;fillColor=#a0522d;fontColor=#ffffff;strokeColor=#6D1F00;" parent="gN87uwsulRMDNThf3h8A-1" vertex="1">
          <mxGeometry x="20" y="370" width="120" height="50" as="geometry" />
        </mxCell>
        <mxCell id="gN87uwsulRMDNThf3h8A-12" style="edgeStyle=orthogonalEdgeStyle;rounded=0;orthogonalLoop=1;jettySize=auto;html=1;exitX=1;exitY=0.5;exitDx=0;exitDy=0;entryX=0;entryY=0.5;entryDx=0;entryDy=0;" parent="gN87uwsulRMDNThf3h8A-1" source="gN87uwsulRMDNThf3h8A-13" target="gN87uwsulRMDNThf3h8A-15" edge="1">
          <mxGeometry relative="1" as="geometry" />
        </mxCell>
        <mxCell id="gN87uwsulRMDNThf3h8A-13" value="Stock Service" style="ellipse;whiteSpace=wrap;html=1;fillColor=#6d8764;fontColor=#ffffff;strokeColor=#3A5431;" parent="gN87uwsulRMDNThf3h8A-1" vertex="1">
          <mxGeometry x="620" y="240" width="120" height="80" as="geometry" />
        </mxCell>
        <mxCell id="gN87uwsulRMDNThf3h8A-14" value="Consumer Group 2" style="ellipse;whiteSpace=wrap;html=1;fillColor=#6d8764;fontColor=#ffffff;strokeColor=#3A5431;" parent="gN87uwsulRMDNThf3h8A-1" vertex="1">
          <mxGeometry x="770" y="330" width="120" height="80" as="geometry" />
        </mxCell>
        <mxCell id="gN87uwsulRMDNThf3h8A-15" value="Consumer Group 1" style="ellipse;whiteSpace=wrap;html=1;fillColor=#6d8764;fontColor=#ffffff;strokeColor=#3A5431;" parent="gN87uwsulRMDNThf3h8A-1" vertex="1">
          <mxGeometry x="770" y="190" width="120" height="80" as="geometry" />
        </mxCell>
        <mxCell id="gN87uwsulRMDNThf3h8A-16" style="edgeStyle=orthogonalEdgeStyle;rounded=0;orthogonalLoop=1;jettySize=auto;html=1;entryX=0;entryY=0.5;entryDx=0;entryDy=0;" parent="gN87uwsulRMDNThf3h8A-1" source="gN87uwsulRMDNThf3h8A-17" target="gN87uwsulRMDNThf3h8A-14" edge="1">
          <mxGeometry relative="1" as="geometry" />
        </mxCell>
        <mxCell id="gN87uwsulRMDNThf3h8A-17" value="Email Service" style="ellipse;whiteSpace=wrap;html=1;fillColor=#6d8764;fontColor=#ffffff;strokeColor=#3A5431;" parent="gN87uwsulRMDNThf3h8A-1" vertex="1">
          <mxGeometry x="620" y="380" width="120" height="80" as="geometry" />
        </mxCell>
        <mxCell id="gN87uwsulRMDNThf3h8A-18" style="edgeStyle=orthogonalEdgeStyle;rounded=0;orthogonalLoop=1;jettySize=auto;html=1;" parent="gN87uwsulRMDNThf3h8A-1" source="gN87uwsulRMDNThf3h8A-19" target="gN87uwsulRMDNThf3h8A-13" edge="1">
          <mxGeometry relative="1" as="geometry" />
        </mxCell>
        <mxCell id="gN87uwsulRMDNThf3h8A-19" value="Microservice 2" style="rounded=1;whiteSpace=wrap;html=1;fillColor=#a0522d;fontColor=#ffffff;strokeColor=#6D1F00;" parent="gN87uwsulRMDNThf3h8A-1" vertex="1">
          <mxGeometry x="620" y="130" width="120" height="50" as="geometry" />
        </mxCell>
        <mxCell id="gN87uwsulRMDNThf3h8A-20" style="edgeStyle=orthogonalEdgeStyle;rounded=0;orthogonalLoop=1;jettySize=auto;html=1;entryX=0.5;entryY=1;entryDx=0;entryDy=0;" parent="gN87uwsulRMDNThf3h8A-1" source="gN87uwsulRMDNThf3h8A-21" target="gN87uwsulRMDNThf3h8A-17" edge="1">
          <mxGeometry relative="1" as="geometry" />
        </mxCell>
        <mxCell id="gN87uwsulRMDNThf3h8A-21" value="Microservice 3" style="rounded=1;whiteSpace=wrap;html=1;fillColor=#a0522d;fontColor=#ffffff;strokeColor=#6D1F00;" parent="gN87uwsulRMDNThf3h8A-1" vertex="1">
          <mxGeometry x="620" y="510" width="120" height="50" as="geometry" />
        </mxCell>
        <mxCell id="471yqUzsdjmonOdd1ZFZ-2" value="" style="whiteSpace=wrap;html=1;aspect=fixed;fillColor=#f5f5f5;strokeColor=#666666;gradientColor=#b3b3b3;" parent="gN87uwsulRMDNThf3h8A-1" vertex="1">
          <mxGeometry x="200" y="160" width="340" height="340" as="geometry" />
        </mxCell>
        <mxCell id="471yqUzsdjmonOdd1ZFZ-9" style="edgeStyle=orthogonalEdgeStyle;rounded=0;orthogonalLoop=1;jettySize=auto;html=1;entryX=0.313;entryY=0;entryDx=0;entryDy=0;entryPerimeter=0;exitX=0.5;exitY=1;exitDx=0;exitDy=0;strokeWidth=4;fillColor=#f5f5f5;gradientColor=#b3b3b3;strokeColor=#666666;" parent="gN87uwsulRMDNThf3h8A-1" source="471yqUzsdjmonOdd1ZFZ-3" target="471yqUzsdjmonOdd1ZFZ-7" edge="1">
          <mxGeometry relative="1" as="geometry" />
        </mxCell>
        <mxCell id="471yqUzsdjmonOdd1ZFZ-10" style="edgeStyle=orthogonalEdgeStyle;rounded=0;orthogonalLoop=1;jettySize=auto;html=1;strokeWidth=5;fillColor=#f5f5f5;gradientColor=#b3b3b3;strokeColor=#666666;" parent="gN87uwsulRMDNThf3h8A-1" source="471yqUzsdjmonOdd1ZFZ-3" target="471yqUzsdjmonOdd1ZFZ-4" edge="1">
          <mxGeometry relative="1" as="geometry" />
        </mxCell>
        <mxCell id="471yqUzsdjmonOdd1ZFZ-3" value="Exchange" style="rhombus;whiteSpace=wrap;html=1;fillColor=#f0a30a;strokeColor=#BD7000;fontColor=#000000;" parent="gN87uwsulRMDNThf3h8A-1" vertex="1">
          <mxGeometry x="220" y="240" width="150" height="80" as="geometry" />
        </mxCell>
        <mxCell id="471yqUzsdjmonOdd1ZFZ-12" style="edgeStyle=orthogonalEdgeStyle;rounded=0;orthogonalLoop=1;jettySize=auto;html=1;exitX=0.5;exitY=1;exitDx=0;exitDy=0;exitPerimeter=0;entryX=0;entryY=0.5;entryDx=0;entryDy=0;fillColor=#f5f5f5;gradientColor=#b3b3b3;strokeColor=#666666;strokeWidth=5;" parent="gN87uwsulRMDNThf3h8A-1" source="471yqUzsdjmonOdd1ZFZ-4" target="gN87uwsulRMDNThf3h8A-13" edge="1">
          <mxGeometry relative="1" as="geometry" />
        </mxCell>
        <mxCell id="471yqUzsdjmonOdd1ZFZ-4" value="&lt;font style=&quot;font-size: 15px;&quot;&gt;Order Queue&lt;/font&gt;" style="shape=cylinder3;whiteSpace=wrap;html=1;boundedLbl=1;backgroundOutline=1;size=15;rotation=-90;fillColor=#ffcd28;gradientColor=#ffa500;strokeColor=#d79b00;" parent="gN87uwsulRMDNThf3h8A-1" vertex="1">
          <mxGeometry x="440" y="225" width="80" height="110" as="geometry" />
        </mxCell>
        <mxCell id="471yqUzsdjmonOdd1ZFZ-13" style="edgeStyle=orthogonalEdgeStyle;rounded=0;orthogonalLoop=1;jettySize=auto;html=1;exitX=0.5;exitY=1;exitDx=0;exitDy=0;exitPerimeter=0;strokeWidth=4;fillColor=#f5f5f5;gradientColor=#b3b3b3;strokeColor=#666666;" parent="gN87uwsulRMDNThf3h8A-1" source="471yqUzsdjmonOdd1ZFZ-7" target="gN87uwsulRMDNThf3h8A-17" edge="1">
          <mxGeometry relative="1" as="geometry" />
        </mxCell>
        <mxCell id="471yqUzsdjmonOdd1ZFZ-7" value="&lt;font style=&quot;font-size: 15px;&quot;&gt;Order Queue&lt;/font&gt;" style="shape=cylinder3;whiteSpace=wrap;html=1;boundedLbl=1;backgroundOutline=1;size=15;rotation=-90;fillColor=#ffcd28;gradientColor=#ffa500;strokeColor=#d79b00;" parent="gN87uwsulRMDNThf3h8A-1" vertex="1">
          <mxGeometry x="440" y="365" width="80" height="110" as="geometry" />
        </mxCell>
        <mxCell id="471yqUzsdjmonOdd1ZFZ-14" value="RabbitMQ" style="rounded=1;whiteSpace=wrap;html=1;fillColor=#a0522d;fontColor=#ffffff;strokeColor=#6D1F00;" parent="gN87uwsulRMDNThf3h8A-1" vertex="1">
          <mxGeometry x="320" y="170" width="120" height="60" as="geometry" />
        </mxCell>
        <mxCell id="471yqUzsdjmonOdd1ZFZ-17" style="edgeStyle=orthogonalEdgeStyle;rounded=0;orthogonalLoop=1;jettySize=auto;html=1;strokeWidth=4;fillColor=#f5f5f5;strokeColor=#666666;" parent="gN87uwsulRMDNThf3h8A-1" source="471yqUzsdjmonOdd1ZFZ-16" target="471yqUzsdjmonOdd1ZFZ-3" edge="1">
          <mxGeometry relative="1" as="geometry" />
        </mxCell>
        <mxCell id="471yqUzsdjmonOdd1ZFZ-16" value="Order Service" style="ellipse;whiteSpace=wrap;html=1;fillColor=#a0522d;fontColor=#ffffff;strokeColor=#6D1F00;" parent="gN87uwsulRMDNThf3h8A-1" vertex="1">
          <mxGeometry x="20" y="240" width="120" height="80" as="geometry" />
        </mxCell>
        <mxCell id="e39c3MkiJiiwVH6YM_Vy-0" value="order_stock" style="text;html=1;strokeColor=none;fillColor=none;align=center;verticalAlign=middle;whiteSpace=wrap;rounded=0;fontColor=#000000;" parent="gN87uwsulRMDNThf3h8A-1" vertex="1">
          <mxGeometry x="354" y="250" width="60" height="30" as="geometry" />
        </mxCell>
        <mxCell id="e39c3MkiJiiwVH6YM_Vy-1" value="order_email" style="text;html=1;strokeColor=none;fillColor=none;align=center;verticalAlign=middle;whiteSpace=wrap;rounded=0;fontColor=#000000;" parent="gN87uwsulRMDNThf3h8A-1" vertex="1">
          <mxGeometry x="330" y="390" width="60" height="30" as="geometry" />
        </mxCell>
        <mxCell id="e39c3MkiJiiwVH6YM_Vy-2" value="order" style="text;html=1;strokeColor=none;fillColor=none;align=center;verticalAlign=middle;whiteSpace=wrap;rounded=0;fontColor=#FFFFFF;" parent="gN87uwsulRMDNThf3h8A-1" vertex="1">
          <mxGeometry x="537" y="250" width="60" height="30" as="geometry" />
        </mxCell>
        <mxCell id="e39c3MkiJiiwVH6YM_Vy-3" value="order" style="text;html=1;strokeColor=none;fillColor=none;align=center;verticalAlign=middle;whiteSpace=wrap;rounded=0;fontColor=#FFFFFF;" parent="gN87uwsulRMDNThf3h8A-1" vertex="1">
          <mxGeometry x="537" y="390" width="60" height="30" as="geometry" />
        </mxCell>
      </root>
    </mxGraphModel>
  </diagram>
  <diagram id="in_CGhPPZ7QoLd7d5TK-" name="consumer app microservice architecture">
    <mxGraphModel dx="1050" dy="621" grid="1" gridSize="10" guides="1" tooltips="1" connect="1" arrows="1" fold="1" page="1" pageScale="1" pageWidth="827" pageHeight="1169" math="0" shadow="0">
      <root>
        <mxCell id="0" />
        <mxCell id="1" parent="0" />
        <mxCell id="35pmytFiy-LkNs-xl5g0-1" value="client&lt;br&gt;(Web or Mobile or Desktop)" style="rounded=1;whiteSpace=wrap;html=1;" parent="1" vertex="1">
          <mxGeometry x="310" y="10" width="120" height="60" as="geometry" />
        </mxCell>
        <mxCell id="35pmytFiy-LkNs-xl5g0-30" style="edgeStyle=orthogonalEdgeStyle;rounded=0;orthogonalLoop=1;jettySize=auto;html=1;exitX=0.5;exitY=1;exitDx=0;exitDy=0;exitPerimeter=0;" parent="1" source="35pmytFiy-LkNs-xl5g0-2" target="35pmytFiy-LkNs-xl5g0-29" edge="1">
          <mxGeometry relative="1" as="geometry" />
        </mxCell>
        <mxCell id="35pmytFiy-LkNs-xl5g0-2" value="" style="outlineConnect=0;dashed=0;verticalLabelPosition=bottom;verticalAlign=top;align=center;html=1;shape=mxgraph.aws3.api_gateway;fillColor=#D9A741;gradientColor=none;" parent="1" vertex="1">
          <mxGeometry x="331.75" y="100" width="76.5" height="93" as="geometry" />
        </mxCell>
        <mxCell id="35pmytFiy-LkNs-xl5g0-3" value="API Gateway" style="text;html=1;strokeColor=none;fillColor=none;align=center;verticalAlign=middle;whiteSpace=wrap;rounded=0;" parent="1" vertex="1">
          <mxGeometry x="400" y="163" width="60" height="30" as="geometry" />
        </mxCell>
        <mxCell id="35pmytFiy-LkNs-xl5g0-4" value="" style="endArrow=classic;html=1;rounded=0;entryX=0.5;entryY=0;entryDx=0;entryDy=0;entryPerimeter=0;exitX=0.5;exitY=1;exitDx=0;exitDy=0;" parent="1" source="35pmytFiy-LkNs-xl5g0-1" target="35pmytFiy-LkNs-xl5g0-2" edge="1">
          <mxGeometry width="50" height="50" relative="1" as="geometry">
            <mxPoint x="446" y="150" as="sourcePoint" />
            <mxPoint x="496" y="100" as="targetPoint" />
          </mxGeometry>
        </mxCell>
        <mxCell id="35pmytFiy-LkNs-xl5g0-5" value="Serviice Registry" style="rounded=1;whiteSpace=wrap;html=1;" parent="1" vertex="1">
          <mxGeometry x="680" y="180" width="120" height="60" as="geometry" />
        </mxCell>
        <mxCell id="35pmytFiy-LkNs-xl5g0-6" value="" style="endArrow=classic;html=1;rounded=0;entryX=0;entryY=0.5;entryDx=0;entryDy=0;exitX=1.01;exitY=0.57;exitDx=0;exitDy=0;exitPerimeter=0;" parent="1" source="35pmytFiy-LkNs-xl5g0-2" target="35pmytFiy-LkNs-xl5g0-5" edge="1">
          <mxGeometry width="50" height="50" relative="1" as="geometry">
            <mxPoint x="490" y="280" as="sourcePoint" />
            <mxPoint x="616" y="220" as="targetPoint" />
            <Array as="points" />
          </mxGeometry>
        </mxCell>
        <mxCell id="35pmytFiy-LkNs-xl5g0-7" style="edgeStyle=orthogonalEdgeStyle;rounded=0;orthogonalLoop=1;jettySize=auto;html=1;exitX=0.25;exitY=0;exitDx=0;exitDy=0;entryX=0.62;entryY=0.967;entryDx=0;entryDy=0;entryPerimeter=0;" parent="1" source="35pmytFiy-LkNs-xl5g0-8" target="35pmytFiy-LkNs-xl5g0-28" edge="1">
          <mxGeometry relative="1" as="geometry" />
        </mxCell>
        <mxCell id="35pmytFiy-LkNs-xl5g0-8" value="Product Service" style="rounded=1;whiteSpace=wrap;html=1;" parent="1" vertex="1">
          <mxGeometry x="126" y="410" width="120" height="60" as="geometry" />
        </mxCell>
        <mxCell id="35pmytFiy-LkNs-xl5g0-9" style="edgeStyle=orthogonalEdgeStyle;rounded=0;orthogonalLoop=1;jettySize=auto;html=1;exitX=0.75;exitY=0;exitDx=0;exitDy=0;entryX=0.5;entryY=1;entryDx=0;entryDy=0;" parent="1" source="35pmytFiy-LkNs-xl5g0-10" target="AMozsspP-i10Owf6HQaK-6" edge="1">
          <mxGeometry relative="1" as="geometry">
            <mxPoint x="616" y="370" as="targetPoint" />
            <Array as="points">
              <mxPoint x="606" y="390" />
              <mxPoint x="617" y="390" />
              <mxPoint x="617" y="360" />
            </Array>
          </mxGeometry>
        </mxCell>
        <mxCell id="35pmytFiy-LkNs-xl5g0-10" value="Stock Service" style="rounded=1;whiteSpace=wrap;html=1;" parent="1" vertex="1">
          <mxGeometry x="516" y="410" width="120" height="60" as="geometry" />
        </mxCell>
        <mxCell id="35pmytFiy-LkNs-xl5g0-11" value="" style="image;html=1;image=img/lib/clip_art/computers/Database_128x128.png" parent="1" vertex="1">
          <mxGeometry x="146" y="560" width="80" height="80" as="geometry" />
        </mxCell>
        <mxCell id="35pmytFiy-LkNs-xl5g0-12" value="" style="image;html=1;image=img/lib/clip_art/computers/Database_128x128.png" parent="1" vertex="1">
          <mxGeometry x="516" y="570" width="80" height="80" as="geometry" />
        </mxCell>
        <mxCell id="35pmytFiy-LkNs-xl5g0-13" value="StockDB" style="text;html=1;strokeColor=none;fillColor=none;align=center;verticalAlign=middle;whiteSpace=wrap;rounded=0;" parent="1" vertex="1">
          <mxGeometry x="526" y="650" width="60" height="30" as="geometry" />
        </mxCell>
        <mxCell id="35pmytFiy-LkNs-xl5g0-14" value="ProductDB" style="text;html=1;strokeColor=none;fillColor=none;align=center;verticalAlign=middle;whiteSpace=wrap;rounded=0;" parent="1" vertex="1">
          <mxGeometry x="156" y="650" width="60" height="30" as="geometry" />
        </mxCell>
        <mxCell id="35pmytFiy-LkNs-xl5g0-15" value="" style="endArrow=classic;html=1;rounded=0;entryX=0.5;entryY=0;entryDx=0;entryDy=0;exitX=0.5;exitY=1;exitDx=0;exitDy=0;exitPerimeter=0;" parent="1" source="35pmytFiy-LkNs-xl5g0-2" target="35pmytFiy-LkNs-xl5g0-10" edge="1">
          <mxGeometry width="50" height="50" relative="1" as="geometry">
            <mxPoint x="446" y="330" as="sourcePoint" />
            <mxPoint x="566" y="330" as="targetPoint" />
          </mxGeometry>
        </mxCell>
        <mxCell id="35pmytFiy-LkNs-xl5g0-16" value="" style="endArrow=classic;html=1;rounded=0;entryX=0.5;entryY=0;entryDx=0;entryDy=0;exitX=0.5;exitY=1;exitDx=0;exitDy=0;exitPerimeter=0;" parent="1" source="35pmytFiy-LkNs-xl5g0-2" target="35pmytFiy-LkNs-xl5g0-8" edge="1">
          <mxGeometry width="50" height="50" relative="1" as="geometry">
            <mxPoint x="456" y="323" as="sourcePoint" />
            <mxPoint x="566" y="410" as="targetPoint" />
          </mxGeometry>
        </mxCell>
        <mxCell id="35pmytFiy-LkNs-xl5g0-17" value="" style="endArrow=classic;html=1;rounded=0;entryX=0.5;entryY=0;entryDx=0;entryDy=0;exitX=0.5;exitY=1;exitDx=0;exitDy=0;" parent="1" source="35pmytFiy-LkNs-xl5g0-10" target="35pmytFiy-LkNs-xl5g0-12" edge="1">
          <mxGeometry width="50" height="50" relative="1" as="geometry">
            <mxPoint x="496" y="440" as="sourcePoint" />
            <mxPoint x="346" y="527" as="targetPoint" />
          </mxGeometry>
        </mxCell>
        <mxCell id="35pmytFiy-LkNs-xl5g0-18" value="" style="endArrow=classic;html=1;rounded=0;entryX=0.5;entryY=0;entryDx=0;entryDy=0;exitX=0.5;exitY=1;exitDx=0;exitDy=0;" parent="1" source="35pmytFiy-LkNs-xl5g0-8" target="35pmytFiy-LkNs-xl5g0-11" edge="1">
          <mxGeometry width="50" height="50" relative="1" as="geometry">
            <mxPoint x="286" y="463" as="sourcePoint" />
            <mxPoint x="136" y="550" as="targetPoint" />
          </mxGeometry>
        </mxCell>
        <mxCell id="35pmytFiy-LkNs-xl5g0-19" value="Config Server" style="rounded=1;whiteSpace=wrap;html=1;" parent="1" vertex="1">
          <mxGeometry x="706" y="410" width="120" height="60" as="geometry" />
        </mxCell>
        <mxCell id="35pmytFiy-LkNs-xl5g0-20" value="" style="endArrow=none;html=1;rounded=0;exitX=1;exitY=0.5;exitDx=0;exitDy=0;entryX=0;entryY=0.5;entryDx=0;entryDy=0;" parent="1" source="35pmytFiy-LkNs-xl5g0-10" target="35pmytFiy-LkNs-xl5g0-19" edge="1">
          <mxGeometry width="50" height="50" relative="1" as="geometry">
            <mxPoint x="596" y="510" as="sourcePoint" />
            <mxPoint x="696" y="430" as="targetPoint" />
          </mxGeometry>
        </mxCell>
        <mxCell id="35pmytFiy-LkNs-xl5g0-22" value="Distributed Tracing" style="rounded=1;whiteSpace=wrap;html=1;" parent="1" vertex="1">
          <mxGeometry x="706" y="540" width="120" height="60" as="geometry" />
        </mxCell>
        <mxCell id="35pmytFiy-LkNs-xl5g0-23" value="Synchronous uses HTTP protocol for requests" style="text;html=1;strokeColor=none;fillColor=none;align=center;verticalAlign=middle;whiteSpace=wrap;rounded=0;" parent="1" vertex="1">
          <mxGeometry x="400" y="360" width="140" height="60" as="geometry" />
        </mxCell>
        <mxCell id="35pmytFiy-LkNs-xl5g0-24" value="Asynchronous uses a message broker such as rabbitmq or kafka" style="text;html=1;strokeColor=none;fillColor=none;align=center;verticalAlign=middle;whiteSpace=wrap;rounded=0;" parent="1" vertex="1">
          <mxGeometry x="408.25" y="460" width="140" height="80" as="geometry" />
        </mxCell>
        <mxCell id="35pmytFiy-LkNs-xl5g0-26" style="edgeStyle=orthogonalEdgeStyle;rounded=0;orthogonalLoop=1;jettySize=auto;html=1;entryX=0;entryY=0.5;entryDx=0;entryDy=0;" parent="1" source="35pmytFiy-LkNs-xl5g0-27" target="35pmytFiy-LkNs-xl5g0-8" edge="1">
          <mxGeometry relative="1" as="geometry" />
        </mxCell>
        <mxCell id="35pmytFiy-LkNs-xl5g0-27" value="Loosely coupled&lt;br style=&quot;font-size: 19px;&quot;&gt;Independently developed, deployed and scaled" style="text;html=1;strokeColor=none;fillColor=none;align=center;verticalAlign=middle;whiteSpace=wrap;rounded=0;fontSize=19;" parent="1" vertex="1">
          <mxGeometry x="20" y="86.5" width="180" height="93.5" as="geometry" />
        </mxCell>
        <mxCell id="35pmytFiy-LkNs-xl5g0-28" value="Expose REST API" style="text;html=1;strokeColor=none;fillColor=none;align=center;verticalAlign=middle;whiteSpace=wrap;rounded=0;" parent="1" vertex="1">
          <mxGeometry x="120" y="290" width="60" height="30" as="geometry" />
        </mxCell>
        <mxCell id="35pmytFiy-LkNs-xl5g0-32" style="edgeStyle=orthogonalEdgeStyle;rounded=0;orthogonalLoop=1;jettySize=auto;html=1;exitX=0.5;exitY=1;exitDx=0;exitDy=0;entryX=0.5;entryY=0;entryDx=0;entryDy=0;" parent="1" source="35pmytFiy-LkNs-xl5g0-29" target="35pmytFiy-LkNs-xl5g0-31" edge="1">
          <mxGeometry relative="1" as="geometry" />
        </mxCell>
        <mxCell id="AMozsspP-i10Owf6HQaK-8" style="edgeStyle=orthogonalEdgeStyle;rounded=0;orthogonalLoop=1;jettySize=auto;html=1;exitX=0.25;exitY=0;exitDx=0;exitDy=0;" parent="1" source="35pmytFiy-LkNs-xl5g0-29" target="AMozsspP-i10Owf6HQaK-7" edge="1">
          <mxGeometry relative="1" as="geometry" />
        </mxCell>
        <mxCell id="35pmytFiy-LkNs-xl5g0-29" value="Inventory service" style="rounded=1;whiteSpace=wrap;html=1;" parent="1" vertex="1">
          <mxGeometry x="308.25" y="410" width="120" height="60" as="geometry" />
        </mxCell>
        <mxCell id="35pmytFiy-LkNs-xl5g0-31" value="" style="image;html=1;image=img/lib/clip_art/computers/Database_128x128.png" parent="1" vertex="1">
          <mxGeometry x="328.25" y="560" width="80" height="80" as="geometry" />
        </mxCell>
        <mxCell id="35pmytFiy-LkNs-xl5g0-33" value="InventoryDB" style="text;html=1;strokeColor=none;fillColor=none;align=center;verticalAlign=middle;whiteSpace=wrap;rounded=0;" parent="1" vertex="1">
          <mxGeometry x="338.25" y="650" width="60" height="30" as="geometry" />
        </mxCell>
        <mxCell id="AMozsspP-i10Owf6HQaK-2" value="" style="endArrow=none;html=1;rounded=0;entryX=0;entryY=0.5;entryDx=0;entryDy=0;exitX=1;exitY=0.5;exitDx=0;exitDy=0;" parent="1" source="35pmytFiy-LkNs-xl5g0-8" target="35pmytFiy-LkNs-xl5g0-29" edge="1">
          <mxGeometry width="50" height="50" relative="1" as="geometry">
            <mxPoint x="246" y="440" as="sourcePoint" />
            <mxPoint x="296" y="390" as="targetPoint" />
          </mxGeometry>
        </mxCell>
        <mxCell id="AMozsspP-i10Owf6HQaK-3" value="" style="endArrow=none;html=1;rounded=0;entryX=0;entryY=0.5;entryDx=0;entryDy=0;exitX=1;exitY=0.5;exitDx=0;exitDy=0;" parent="1" source="35pmytFiy-LkNs-xl5g0-29" target="35pmytFiy-LkNs-xl5g0-10" edge="1">
          <mxGeometry width="50" height="50" relative="1" as="geometry">
            <mxPoint x="434" y="430" as="sourcePoint" />
            <mxPoint x="496" y="430" as="targetPoint" />
          </mxGeometry>
        </mxCell>
        <mxCell id="AMozsspP-i10Owf6HQaK-4" value="Sync(Http Rest Api)" style="text;html=1;strokeColor=none;fillColor=none;align=center;verticalAlign=middle;whiteSpace=wrap;rounded=0;" parent="1" vertex="1">
          <mxGeometry x="246" y="400" width="60" height="30" as="geometry" />
        </mxCell>
        <mxCell id="AMozsspP-i10Owf6HQaK-5" value="Async(Using message broker)" style="text;html=1;strokeColor=none;fillColor=none;align=center;verticalAlign=middle;whiteSpace=wrap;rounded=0;" parent="1" vertex="1">
          <mxGeometry x="246" y="450" width="60" height="30" as="geometry" />
        </mxCell>
        <mxCell id="AMozsspP-i10Owf6HQaK-6" value="Expose REST API" style="text;html=1;strokeColor=none;fillColor=none;align=center;verticalAlign=middle;whiteSpace=wrap;rounded=0;" parent="1" vertex="1">
          <mxGeometry x="610" y="320" width="60" height="30" as="geometry" />
        </mxCell>
        <mxCell id="AMozsspP-i10Owf6HQaK-7" value="Expose REST API" style="text;html=1;strokeColor=none;fillColor=none;align=center;verticalAlign=middle;whiteSpace=wrap;rounded=0;" parent="1" vertex="1">
          <mxGeometry x="290" y="330" width="60" height="30" as="geometry" />
        </mxCell>
      </root>
    </mxGraphModel>
  </diagram>
  <diagram id="_RNNE3TLlbnyicLWiua3" name="hrms microservice">
    <mxGraphModel dx="1050" dy="621" grid="1" gridSize="10" guides="1" tooltips="1" connect="1" arrows="1" fold="1" page="1" pageScale="1" pageWidth="850" pageHeight="1100" math="0" shadow="0">
      <root>
        <mxCell id="0" />
        <mxCell id="1" parent="0" />
        <mxCell id="V5Sqhjzo-p6vDhYeKKw4-1" value="React App" style="image;aspect=fixed;html=1;points=[];align=center;fontSize=12;image=img/lib/azure2/management_governance/Managed_Desktop.svg;" vertex="1" parent="1">
          <mxGeometry y="270" width="68" height="63.2" as="geometry" />
        </mxCell>
        <mxCell id="V5Sqhjzo-p6vDhYeKKw4-2" value="" style="whiteSpace=wrap;html=1;aspect=fixed;fillStyle=auto;strokeWidth=2;dashed=1;" vertex="1" parent="1">
          <mxGeometry x="125" y="35" width="565" height="565" as="geometry" />
        </mxCell>
        <mxCell id="V5Sqhjzo-p6vDhYeKKw4-3" value="API&lt;br&gt;Gateway" style="rounded=1;whiteSpace=wrap;html=1;fillColor=#6d8764;fontColor=#ffffff;strokeColor=#3A5431;" vertex="1" parent="1">
          <mxGeometry x="150" y="105" width="100" height="400" as="geometry" />
        </mxCell>
        <mxCell id="V5Sqhjzo-p6vDhYeKKw4-4" value="Employee&lt;br&gt;Service" style="shape=cube;whiteSpace=wrap;html=1;boundedLbl=1;backgroundOutline=1;darkOpacity=0.05;darkOpacity2=0.1;fillColor=#fa6800;fontColor=#000000;strokeColor=#C73500;" vertex="1" parent="1">
          <mxGeometry x="325" y="105" width="120" height="80" as="geometry" />
        </mxCell>
        <mxCell id="V5Sqhjzo-p6vDhYeKKw4-5" value="Department&lt;br&gt;Service" style="shape=cube;whiteSpace=wrap;html=1;boundedLbl=1;backgroundOutline=1;darkOpacity=0.05;darkOpacity2=0.1;fillColor=#008a00;fontColor=#ffffff;strokeColor=#005700;" vertex="1" parent="1">
          <mxGeometry x="325" y="253.2" width="120" height="80" as="geometry" />
        </mxCell>
        <mxCell id="V5Sqhjzo-p6vDhYeKKw4-6" value="Organization Service" style="shape=cube;whiteSpace=wrap;html=1;boundedLbl=1;backgroundOutline=1;darkOpacity=0.05;darkOpacity2=0.1;fillColor=#6a00ff;fontColor=#ffffff;strokeColor=#3700CC;" vertex="1" parent="1">
          <mxGeometry x="325" y="417" width="120" height="80" as="geometry" />
        </mxCell>
        <mxCell id="V5Sqhjzo-p6vDhYeKKw4-7" value="" style="rounded=0;whiteSpace=wrap;html=1;fillColor=#eeeeee;strokeColor=#36393d;" vertex="1" parent="1">
          <mxGeometry x="525" y="92.5" width="150" height="432.5" as="geometry" />
        </mxCell>
        <mxCell id="V5Sqhjzo-p6vDhYeKKw4-8" value="" style="endArrow=none;html=1;rounded=0;" edge="1" parent="1">
          <mxGeometry width="50" height="50" relative="1" as="geometry">
            <mxPoint x="300" y="135" as="sourcePoint" />
            <mxPoint x="325" y="135" as="targetPoint" />
          </mxGeometry>
        </mxCell>
        <mxCell id="V5Sqhjzo-p6vDhYeKKw4-9" value="" style="endArrow=none;html=1;rounded=0;" edge="1" parent="1">
          <mxGeometry width="50" height="50" relative="1" as="geometry">
            <mxPoint x="300" y="464.5" as="sourcePoint" />
            <mxPoint x="325" y="464.5" as="targetPoint" />
          </mxGeometry>
        </mxCell>
        <mxCell id="V5Sqhjzo-p6vDhYeKKw4-10" value="" style="endArrow=none;html=1;rounded=0;" edge="1" parent="1">
          <mxGeometry width="50" height="50" relative="1" as="geometry">
            <mxPoint x="350" y="185" as="sourcePoint" />
            <mxPoint x="375" y="185" as="targetPoint" />
          </mxGeometry>
        </mxCell>
        <mxCell id="V5Sqhjzo-p6vDhYeKKw4-11" value="" style="endArrow=none;html=1;rounded=0;" edge="1" parent="1">
          <mxGeometry width="50" height="50" relative="1" as="geometry">
            <mxPoint x="300" y="292.7" as="sourcePoint" />
            <mxPoint x="325" y="292.7" as="targetPoint" />
          </mxGeometry>
        </mxCell>
        <mxCell id="V5Sqhjzo-p6vDhYeKKw4-12" value="" style="endArrow=none;html=1;rounded=0;" edge="1" parent="1">
          <mxGeometry width="50" height="50" relative="1" as="geometry">
            <mxPoint x="445" y="144.5" as="sourcePoint" />
            <mxPoint x="470" y="144.5" as="targetPoint" />
          </mxGeometry>
        </mxCell>
        <mxCell id="V5Sqhjzo-p6vDhYeKKw4-13" value="" style="endArrow=none;html=1;rounded=0;" edge="1" parent="1">
          <mxGeometry width="50" height="50" relative="1" as="geometry">
            <mxPoint x="445" y="292.7" as="sourcePoint" />
            <mxPoint x="470" y="292.7" as="targetPoint" />
          </mxGeometry>
        </mxCell>
        <mxCell id="V5Sqhjzo-p6vDhYeKKw4-14" value="" style="endArrow=none;html=1;rounded=0;" edge="1" parent="1">
          <mxGeometry width="50" height="50" relative="1" as="geometry">
            <mxPoint x="445" y="464.5" as="sourcePoint" />
            <mxPoint x="470" y="464.5" as="targetPoint" />
          </mxGeometry>
        </mxCell>
        <mxCell id="V5Sqhjzo-p6vDhYeKKw4-15" value="" style="endArrow=none;html=1;rounded=0;" edge="1" parent="1">
          <mxGeometry width="50" height="50" relative="1" as="geometry">
            <mxPoint x="300" y="475" as="sourcePoint" />
            <mxPoint x="300" y="135" as="targetPoint" />
          </mxGeometry>
        </mxCell>
        <mxCell id="V5Sqhjzo-p6vDhYeKKw4-16" value="" style="endArrow=none;html=1;rounded=0;" edge="1" parent="1">
          <mxGeometry width="50" height="50" relative="1" as="geometry">
            <mxPoint x="471" y="483" as="sourcePoint" />
            <mxPoint x="471" y="143" as="targetPoint" />
          </mxGeometry>
        </mxCell>
        <mxCell id="V5Sqhjzo-p6vDhYeKKw4-17" value="" style="dashed=0;outlineConnect=0;html=1;align=center;labelPosition=center;verticalLabelPosition=bottom;verticalAlign=top;shape=mxgraph.webicons.github;gradientColor=#DFDEDE" vertex="1" parent="1">
          <mxGeometry x="574.5" y="105" width="51" height="45" as="geometry" />
        </mxCell>
        <mxCell id="V5Sqhjzo-p6vDhYeKKw4-18" value="&lt;font color=&quot;#000000&quot;&gt;Config&lt;br&gt;Server&lt;br&gt;&lt;/font&gt;" style="rounded=1;whiteSpace=wrap;html=1;fillColor=#bac8d3;strokeColor=#23445d;" vertex="1" parent="1">
          <mxGeometry x="540" y="185" width="120" height="60" as="geometry" />
        </mxCell>
        <mxCell id="V5Sqhjzo-p6vDhYeKKw4-19" value="&lt;font color=&quot;#000000&quot;&gt;Spring Cloud&lt;br&gt;Sleuth&lt;br&gt;&lt;/font&gt;" style="rounded=1;whiteSpace=wrap;html=1;fillColor=#bac8d3;strokeColor=#23445d;" vertex="1" parent="1">
          <mxGeometry x="540" y="365" width="120" height="60" as="geometry" />
        </mxCell>
        <mxCell id="V5Sqhjzo-p6vDhYeKKw4-20" value="&lt;font color=&quot;#000000&quot;&gt;Service&lt;br&gt;Registry&lt;br&gt;&lt;/font&gt;" style="rounded=1;whiteSpace=wrap;html=1;fillColor=#bac8d3;strokeColor=#23445d;" vertex="1" parent="1">
          <mxGeometry x="540" y="275" width="120" height="60" as="geometry" />
        </mxCell>
        <mxCell id="V5Sqhjzo-p6vDhYeKKw4-21" value="" style="image;aspect=fixed;html=1;points=[];align=center;fontSize=12;image=img/lib/azure2/compute/Azure_Spring_Cloud.svg;" vertex="1" parent="1">
          <mxGeometry x="549.5" y="394.5" width="22.5" height="22.5" as="geometry" />
        </mxCell>
        <mxCell id="V5Sqhjzo-p6vDhYeKKw4-22" value="" style="image;aspect=fixed;html=1;points=[];align=center;fontSize=12;image=img/lib/azure2/compute/Azure_Spring_Cloud.svg;" vertex="1" parent="1">
          <mxGeometry x="549.5" y="203.75" width="22.5" height="22.5" as="geometry" />
        </mxCell>
        <mxCell id="V5Sqhjzo-p6vDhYeKKw4-23" value="" style="image;aspect=fixed;html=1;points=[];align=center;fontSize=12;image=img/lib/azure2/compute/Azure_Spring_Cloud.svg;" vertex="1" parent="1">
          <mxGeometry x="549.5" y="293.75" width="22.5" height="22.5" as="geometry" />
        </mxCell>
        <mxCell id="V5Sqhjzo-p6vDhYeKKw4-24" value="" style="endArrow=classic;html=1;rounded=0;strokeWidth=2;" edge="1" parent="1">
          <mxGeometry width="50" height="50" relative="1" as="geometry">
            <mxPoint x="75" y="300" as="sourcePoint" />
            <mxPoint x="100" y="300" as="targetPoint" />
          </mxGeometry>
        </mxCell>
        <mxCell id="V5Sqhjzo-p6vDhYeKKw4-25" value="" style="endArrow=classic;html=1;rounded=0;strokeWidth=2;" edge="1" parent="1">
          <mxGeometry width="50" height="50" relative="1" as="geometry">
            <mxPoint x="267" y="304.5" as="sourcePoint" />
            <mxPoint x="292" y="304.5" as="targetPoint" />
          </mxGeometry>
        </mxCell>
        <mxCell id="V5Sqhjzo-p6vDhYeKKw4-26" value="" style="endArrow=classic;html=1;rounded=0;strokeWidth=2;" edge="1" parent="1">
          <mxGeometry width="50" height="50" relative="1" as="geometry">
            <mxPoint x="481" y="270" as="sourcePoint" />
            <mxPoint x="506" y="270" as="targetPoint" />
          </mxGeometry>
        </mxCell>
        <mxCell id="V5Sqhjzo-p6vDhYeKKw4-27" value="" style="endArrow=none;html=1;rounded=0;" edge="1" parent="1" source="V5Sqhjzo-p6vDhYeKKw4-6" target="V5Sqhjzo-p6vDhYeKKw4-28">
          <mxGeometry width="50" height="50" relative="1" as="geometry">
            <mxPoint x="350" y="350" as="sourcePoint" />
            <mxPoint x="400" y="300" as="targetPoint" />
          </mxGeometry>
        </mxCell>
        <mxCell id="V5Sqhjzo-p6vDhYeKKw4-28" value="" style="rounded=1;whiteSpace=wrap;html=1;fillColor=#bac8d3;strokeColor=#23445d;" vertex="1" parent="1">
          <mxGeometry x="325" y="550" width="125" height="100" as="geometry" />
        </mxCell>
        <mxCell id="V5Sqhjzo-p6vDhYeKKw4-29" value="" style="shape=datastore;whiteSpace=wrap;html=1;fillColor=#b0e3e6;strokeColor=#0e8088;" vertex="1" parent="1">
          <mxGeometry x="357" y="565" width="60" height="60" as="geometry" />
        </mxCell>
        <mxCell id="V5Sqhjzo-p6vDhYeKKw4-30" value="&lt;font color=&quot;#000000&quot;&gt;Databases&lt;/font&gt;" style="text;html=1;strokeColor=none;fillColor=none;align=center;verticalAlign=middle;whiteSpace=wrap;rounded=0;" vertex="1" parent="1">
          <mxGeometry x="357.5" y="620" width="60" height="30" as="geometry" />
        </mxCell>
        <mxCell id="V5Sqhjzo-p6vDhYeKKw4-31" value="" style="shape=image;aspect=fixed;image=data:image/png,iVBORw0KGgoAAAANSUhEUgAAAM4AAAD1CAMAAAAvfDqYAAAAxlBMVEUiIiL+cTn///8AAAD/dDr/dToAGiAAHSEXFxf2bjgfHx9ubm7Z2dkAGSAAHCEPDw/z8/Pp6em9vb10dHQdISLIyMgcHBwVHyGkpKQnJycRHiH0bTjuazeiTi4SEhLTYTQ8KiSwUzC4VjEtJiPGXDLcZDVGLSXlaDaSSCxGRkZ+QSpVMibfZTVxPCnPz8+Pj49fX19PMCaORixjNydeNSecTC1AKyRmZmaxsbFISEhtOyk0KCNVVVU7OzuYmJh+fn4xMTEAEB/I6VNUAAAMeElEQVR4nO2cZ2ObvBqGwQhs0xjbCTENduJm7500bUbT9///qcPQRI+A1mCgR/cnAljoQtIzJBHD0NLS0tLS0tLS0tLS0tLS0tLS0tLS0vqn5QdN16BK+W9Lp+k6VChnaV+ETVeiMgXXyBz+O93NW5gm2vearkZFcnaRaZr2/b/RPv73mMY0r/6N5nGWCY1pP/wL1iC8sE0s32+6MqurPyQ06KD7zsc7QCbleeq6NfAvGY1pnna9eZwrjsZEz/2mK7SSvAfbFHTYZWvgGyKMiY663N2cI5ThsV+7aw2CxyyNaS5GTdfqrzVaSDQm2u1qrOM9y40T8XzvpjXw3wCYCKejiamzhBonsgadTEyDaxukMc1hF3H6cwVNlJh2r7s5+3BXS3juu2YN/BM1TZSYds35jI5zaDqXmHIpKGwNjC51N98f5tJEiWmXYgM+BVV0tw4lpsFlEU2UmHbHGjinhTQmOutKYuqdFTeO2ZnE1D8sAxMlpt3obiMpBYVlP3bBGgSP+S6HadEFY90HUlBFd+tAYurtAl0N7YO5D/rWdmvgf4PqPYRPo2XbrcEIagZ0EYKN1vrENART0Dgf8MAhNW81jh9AoSc68VUGr92JKZiC4irLM6JJdztprzXwT6AWmKfeUhEsHLe3ecTVD/L+r/H4kFYT0sutTUzDB6irMWM8AgPtYUtXTKXVjxSHuUofTIPaumLqQCmoEMjASap92cZQNHiChoYQZsJ2vJ0rph40MjJJADzBY5+1LxTtQymotHbowNNvrZum8g/BnC2bQJP9OQXUjQv0+UjuRQ4YiqKWrZgGr1AtocknB1xYaFliCqagCLLAwSsYirYqMYVTUHjiFg5F0Vt7rAE8wEn0QoMY/CcYirZpxZRswBNEMk3/5BLz4PEOmnQWqTYu2DmSyN85ekxxQrJDAp7zHbZl9ITKFNRIciDcOn3zOa1x8ASOnpZs5YVDT1I5Z0lxhsT7g7+gL6BZwWE/6TrBtc1wyMyAH0C9rR2JqZebgkbjhGsdkvwoQtEWTFOFUMpMzW581b5nOGTVAA5Fh0HT3U2RghKnGFsJDoeuIcLr9M2vmMKhJwlZkmiBx6Fb3T1wFwUYFq1R0AY8FlCme6YQj0PHB7zHpeEVUwcMPUm4nzadgGPOMSo8/dtsYgpuwKPJGJ5FFHHQM3VIYMK305w18N/AGpFUGZsv4h7J7n0airYtMQVfMO0v8TdVAA6dV4P3Vja3YgpvwKPTTGRcZVuHbgYF537MRVPNAxonamupf5VwyDQvbBabSkxB18GmaGmcTVqDfvlC9+PAianZSGKq2IBH4hQGK+GYV8T0+VAJzayYghvwqJfkdh3LOPQuMOCL4tf1W4P8FJTvRzKOOaS3QeF4Ayum8AY8moH59xzsNwmHfscDr9etf8UUXNtg+bHQE2Uc5moVoeiaE9PgElwFJZ1E9EgADmAABR2v1xqA64JsbkncRPAGtA71pW1ITMENeMzAZhZJQRx6M7hPZK0rpoqJTOL+sjMbEA6LzRTbddaYmOanoNLwBnHYJ9iK7Tpr++Ic3o+yIFtVpdcN47DhAW/XWduKKfh4FthLbQfjMF+q2K7zsJ7uBq9+0I2qggdNdAjj0LxUtXt0LSum8NBlq6DyFJoCh/1GYVrWspUX3oBHpyxIDloCh/lSeOf1Ojb2w26PjVtgYClbh8Uy8BrJov6N8AGUgrJ9KOGzTGsoceiSmzzgkuvPdVsDeAMe83nhLpJuUOEg+4gOdni7Tt0rpnBAz0cknrFvZmqmwEHLe+ZaFNsua05M81PQtGLO24HYQvhCJshZPjn8q1eEorUmpnAyfPWf+EzfezvigIa+jIOOn0aZfvQftF5ca2LqG/A3YMunUQbI+c6AZBz76jXzAyMYXYI4aLe+WAde04yeiY5fnWwL3S9JSxoijr24ztxshM71seKzkvo29sMpKK7j6UVf7Bf+6D51QeSfZRGci2xTesHZQl1ybSum+d+A2YsHzxPe5GgJ4QzF6vne4f4w74OfuhLTwm/A0PDZ54G8YxCHr13g3B/JjkpUPV+cl/kGDJn7hwwIt6YaJ/Sul3bhp1j1bOVVTChLQAffCNBoLtQ/g+P3+w+LUp+VoafqrYH/VPwe04fbR5ep5fLE+gs4kbPdzUYPqgKHFzX40uCyRMdIn4+Wj7H16itxgtH9UVmY+VlYz+BxTgqHLZF9eu2EeH1g2Bdx+qHzelz2zSwenNrigsjZH5QGWlwEMI7zkONlsmXUB5MCZePLnDc7B3HMeekWvvBqnwv1gQwgX1mckjBX19m4rjagskbpr3FsKQisE6gfPucGJivioOPH9cEk8sKzsmPgD3EiM5/NN9ahsF/SQpGYsxQOspeXzvoWDwSg0cVpCSCyj7IEDkJHJw3BJEDO9VUhUGkchA6ahIkVRB6+KMAvhxPBvDUMEysYPS5zPeu8zNiJIvE3r3mYWIGTG52WwEGIz5MaV5AXnRbiIHM3aBFMrCjcVgVzczyTqcDJpuQtkTI6zcWJYMIWwsTynUMoOs3BQYuzfvM725UCo9OFCseeP9SfAawmv9/PRqcKHLS4GLUcJpEXnAlAIE6Um9WbaFaoUJhyWsiGOsrNvHZ9KZqv0GHRqYQT5WYNZACrKfQIUAbHXq47N6tGwej1CmVwotzssnMtQxQ4j1Ewd0pxonSmqdysGsXRKW0d8+ikpQFAeUXRKUH43nmYWL50oKWlpaWlpaWlpaWlpaX1fyR3oFJyGR/PuGNyapYpib+VaMafnLGCXehmcjZb8J/Q7Gx9UWgnvoyP36NHzMTLdx+WZe25rObkPFeb8Xt6busl/v1d+kd07H7gp/7kq+6eb0kl/KFmP3sqRY9yXXy8bRmGJd0x3b41LPLsMT55Y9HCB+/kzpeoSaxpejyxjMEWPj8Zs/dhjH/hYi3jbzU7V+KcczibIE5y5WOMKzNh5KncAT7Vu43PWRu0thSn92ss42w0iIPrCuFYNz3+FIjT47rr+GudOD9L4vS+WiCOhWsX1d9V4/xgda8CRz12DLckTu9zDODs3ZHLH+nwgnF6v+nArxVna8+AcSY3G5GmE+7eiDyLM9uhBeHhocBhnbMCHMPYEUSGY2qgQJxtK9Xvzymp0texhEMqz3qTAqf3Tm1jFTgur8EH7QOuGgf/cM/60aM1zODQgcPqpsKhd1SCI4i+02Q45ONEl+ntO66IM/6CL0xmbrbsLE7vy6AmHOtWfGMFOMbeJz4XuUkeZ0Yb+X0gvSoJh7jNqnFYLbC5KcJxf+Nzt3sCDgkAiE/Kx8FdoXIc2ndILQpxSGQj4lib8q15OBOrDpwx6Tq0vEIccl3AoeVMLC4ig3CmOG74ZVWPMyM9h/i9YpwBcZVb/Ng5l8pR4UxI744dV8U4NMT6xUxXAQ611FHFGQ4ZOJ9itSAcazs9SJxTpTi0i0yBzgTjDEh7Tji/s0kGjjhyFDikhLghq8RxZ6QWP5ltzcWZWb+n3GWCwwU/LwP+CSAOad+40CpxSLPj+DgXJ9VP4viT4JvicBLzMBDHNVgRFeQ7RHtbUBXgEHQjCUG5aqc9X8bhRiGM04uMOmMY31aF49LK3PEdpFyCkOYzEE4c/BTg0Cd/GVSHQx3fD6GoUjjTncQegzibBVGBxUzQ1KoMZ+8FFy86vlI42+PUuwg4BumLd/kxWzKHgO/dsirCcS1SFdEWlcDZeCEvgMd5sYChqMIZfCHnK8Kh3nAzU1A+zmTj64dF+TmcyAKw8I9O1ahw6IXbanDodNhkzxWvgDg373ex3n9b1pifIqQ4cSLLknaDlKnEmeHnTyrBcWlUEk8PFONsW+mcbgad4qTjjxoX2uJKHOrzplXg0Dx4WyqmKGYDcc6T/kf9Y49M3KpxWJ61Os6AdosdN3vtb3DIZTqJQmqnxmGDd3UcFgCPpWur4EgF5+DQ56yMQ7vaDVDISjgDOv0xUM6CSjOmK+KwSd2ZldFsRRyWQP0Q7DGEY1ic11oBh/aI6WZG23eKOerSOGyEn8+KcGi2tRIOHa+APgcr4rARnlQwF4e911VwLChuxNpaGYelhJ97RTh7ZKS1F4dmMIlrzcdhYVF7cVgX+moV4bCVx3pwVh873MxVZA0KcFh6vwJOslYDK0oWXAMfxyseFj7+IbvbpOY30GVrk5ZADrfHxuAlPRR83ewc35qN6/+ER61k/R8fj7l7YRrVZYudJocxOzvkeCzorJaWlpaWlpaWlpaWlpaWlpaWlpaWVnf1P8sjH76q2GVMAAAAAElFTkSuQmCC;" vertex="1" parent="1">
          <mxGeometry x="572" y="450" width="63.06" height="75" as="geometry" />
        </mxCell>
      </root>
    </mxGraphModel>
  </diagram>
</mxfile>
